<svg width="529" height="202" viewBox="0 0 529 202" fill="none" xmlns="http://www.w3.org/2000/svg">
<path d="M190 95.4C188.18 95.4 186.757 94.8167 185.73 93.65C184.703 92.4833 184.19 90.6167 184.19 88.05V68.66H151.08C148.56 68.66 146.693 68.1467 145.48 67.12C144.313 66.0933 143.73 64.7167 143.73 62.99C143.73 62.15 143.87 61.1467 144.15 59.98C144.43 58.8133 144.733 57.7167 145.06 56.69L161.93 10.91C162.443 9.41666 163.19 8.31999 164.17 7.61999C165.197 6.87333 166.317 6.5 167.53 6.5C168.743 6.5 169.817 6.94333 170.75 7.83C171.73 8.67 172.22 9.90666 172.22 11.54C172.22 11.96 172.197 12.38 172.15 12.8C172.103 13.22 172.01 13.6867 171.87 14.2L155.28 59.77H184.26V17C184.26 15.5067 184.517 14.34 185.03 13.5C185.59 12.6133 186.29 11.9833 187.13 11.61C188.017 11.19 188.88 10.98 189.72 10.98C190.607 10.98 191.47 11.19 192.31 11.61C193.15 11.9833 193.827 12.6133 194.34 13.5C194.9 14.34 195.18 15.5067 195.18 17V59.77H203.51C205.517 59.77 207.057 60.1667 208.13 60.96C209.25 61.7067 209.81 62.8033 209.81 64.25C209.81 65.6967 209.25 66.7933 208.13 67.54C207.057 68.2867 205.517 68.66 203.51 68.66H195.18V88.05C195.18 90.6167 194.69 92.4833 193.71 93.65C192.73 94.8167 191.493 95.4 190 95.4ZM264.15 58.23C262.143 58.23 260.416 57.5767 258.97 56.27C257.523 54.9167 256.8 53.19 256.8 51.09C256.8 48.8967 257.523 47.1467 258.97 45.84C260.416 44.5333 262.143 43.88 264.15 43.88C266.203 43.88 267.953 44.5333 269.4 45.84C270.846 47.1467 271.57 48.8967 271.57 51.09C271.57 53.19 270.846 54.9167 269.4 56.27C267.953 57.5767 266.203 58.23 264.15 58.23ZM264.22 95.47C260.486 95.47 256.753 94.7233 253.02 93.23C249.333 91.7367 245.973 89.2867 242.94 85.88C239.906 82.4733 237.48 77.9 235.66 72.16C233.886 66.42 233 59.35 233 50.95C233 42.5033 233.886 35.4333 235.66 29.74C237.48 24.0467 239.906 19.4967 242.94 16.09C245.973 12.6833 249.333 10.2333 253.02 8.74C256.753 7.24667 260.486 6.5 264.22 6.5C267.766 6.5 271.36 7.24667 275 8.74C278.64 10.2333 281.976 12.6833 285.01 16.09C288.09 19.4967 290.563 24.0467 292.43 29.74C294.343 35.4333 295.3 42.5033 295.3 50.95C295.3 59.35 294.343 66.42 292.43 72.16C290.563 77.9 288.09 82.4733 285.01 85.88C281.976 89.2867 278.64 91.7367 275 93.23C271.36 94.7233 267.766 95.47 264.22 95.47ZM264.22 86.51C267.533 86.51 270.636 85.2967 273.53 82.87C276.47 80.3967 278.85 76.5467 280.67 71.32C282.536 66.0467 283.47 59.2567 283.47 50.95C283.47 42.5967 282.536 35.83 280.67 30.65C278.85 25.4233 276.47 21.5733 273.53 19.1C270.636 16.6267 267.533 15.39 264.22 15.39C260.813 15.39 257.64 16.6267 254.7 19.1C251.76 21.5733 249.38 25.4233 247.56 30.65C245.74 35.83 244.83 42.5967 244.83 50.95C244.83 59.2567 245.74 66.0467 247.56 71.32C249.38 76.5467 251.76 80.3967 254.7 82.87C257.64 85.2967 260.813 86.51 264.22 86.51ZM363.359 95.4C361.539 95.4 360.116 94.8167 359.089 93.65C358.063 92.4833 357.549 90.6167 357.549 88.05V68.66H324.439C321.919 68.66 320.053 68.1467 318.839 67.12C317.673 66.0933 317.089 64.7167 317.089 62.99C317.089 62.15 317.229 61.1467 317.509 59.98C317.789 58.8133 318.093 57.7167 318.419 56.69L335.289 10.91C335.803 9.41666 336.549 8.31999 337.529 7.61999C338.556 6.87333 339.676 6.5 340.889 6.5C342.103 6.5 343.176 6.94333 344.109 7.83C345.089 8.67 345.579 9.90666 345.579 11.54C345.579 11.96 345.556 12.38 345.509 12.8C345.463 13.22 345.369 13.6867 345.229 14.2L328.639 59.77H357.619V17C357.619 15.5067 357.876 14.34 358.389 13.5C358.949 12.6133 359.649 11.9833 360.489 11.61C361.376 11.19 362.239 10.98 363.079 10.98C363.966 10.98 364.829 11.19 365.669 11.61C366.509 11.9833 367.186 12.6133 367.699 13.5C368.259 14.34 368.539 15.5067 368.539 17V59.77H376.869C378.876 59.77 380.416 60.1667 381.489 60.96C382.609 61.7067 383.169 62.8033 383.169 64.25C383.169 65.6967 382.609 66.7933 381.489 67.54C380.416 68.2867 378.876 68.66 376.869 68.66H368.539V88.05C368.539 90.6167 368.049 92.4833 367.069 93.65C366.089 94.8167 364.853 95.4 363.359 95.4Z" fill="#B7C5EA"/>
<path d="M12.09 137.65C10.95 137.65 9.92 137.85 9 138.25C8.08 138.63 7.3 139.2 6.66 139.96C6.02 140.7 5.53 141.61 5.19 142.69C4.85 143.75 4.68 144.95 4.68 146.29C4.68 148.05 4.95 149.58 5.49 150.88C6.05 152.18 6.87 153.18 7.95 153.88C9.05 154.58 10.42 154.93 12.06 154.93C13 154.93 13.89 154.85 14.73 154.69C15.57 154.53 16.39 154.33 17.19 154.09V156.43C16.39 156.73 15.56 156.95 14.7 157.09C13.86 157.23 12.85 157.3 11.67 157.3C9.49 157.3 7.67 156.85 6.21 155.95C4.75 155.05 3.65 153.77 2.91 152.11C2.19 150.45 1.83 148.5 1.83 146.26C1.83 144.64 2.05 143.16 2.49 141.82C2.95 140.48 3.61 139.32 4.47 138.34C5.35 137.36 6.43 136.61 7.71 136.09C8.99 135.55 10.46 135.28 12.12 135.28C13.22 135.28 14.28 135.39 15.3 135.61C16.32 135.83 17.23 136.14 18.03 136.54L16.95 138.82C16.29 138.52 15.55 138.25 14.73 138.01C13.93 137.77 13.05 137.65 12.09 137.65ZM32.6051 143.14H27.3551V157H24.7451V143.14H19.5551V140.92H32.6051V143.14ZM43.4227 140.62C45.4027 140.62 46.9927 141.31 48.1927 142.69C49.4127 144.07 50.0227 146.15 50.0227 148.93C50.0227 150.75 49.7427 152.29 49.1827 153.55C48.6427 154.79 47.8727 155.73 46.8727 156.37C45.8927 156.99 44.7327 157.3 43.3927 157.3C42.5727 157.3 41.8427 157.19 41.2027 156.97C40.5627 156.75 40.0127 156.47 39.5527 156.13C39.1127 155.77 38.7327 155.38 38.4127 154.96H38.2327C38.2727 155.3 38.3127 155.73 38.3527 156.25C38.3927 156.77 38.4127 157.22 38.4127 157.6V164.2H35.7727V140.92H37.9327L38.2927 143.11H38.4127C38.7327 142.65 39.1127 142.23 39.5527 141.85C40.0127 141.47 40.5527 141.17 41.1727 140.95C41.8127 140.73 42.5627 140.62 43.4227 140.62ZM42.9427 142.84C41.8627 142.84 40.9927 143.05 40.3327 143.47C39.6727 143.87 39.1927 144.48 38.8927 145.3C38.5927 146.12 38.4327 147.16 38.4127 148.42V148.93C38.4127 150.25 38.5527 151.37 38.8327 152.29C39.1127 153.21 39.5827 153.91 40.2427 154.39C40.9227 154.87 41.8427 155.11 43.0027 155.11C43.9827 155.11 44.7827 154.84 45.4027 154.3C46.0427 153.76 46.5127 153.03 46.8127 152.11C47.1327 151.17 47.2927 150.1 47.2927 148.9C47.2927 147.06 46.9327 145.59 46.2127 144.49C45.5127 143.39 44.4227 142.84 42.9427 142.84ZM60.3197 140.65C62.2797 140.65 63.7297 141.08 64.6697 141.94C65.6097 142.8 66.0797 144.17 66.0797 146.05V157H64.1597L63.6497 154.72H63.5297C63.0697 155.3 62.5897 155.79 62.0897 156.19C61.6097 156.57 61.0497 156.85 60.4097 157.03C59.7897 157.21 59.0297 157.3 58.1297 157.3C57.1697 157.3 56.2997 157.13 55.5197 156.79C54.7597 156.45 54.1597 155.93 53.7197 155.23C53.2797 154.51 53.0597 153.61 53.0597 152.53C53.0597 150.93 53.6897 149.7 54.9497 148.84C56.2097 147.96 58.1497 147.48 60.7697 147.4L63.4997 147.31V146.35C63.4997 145.01 63.2097 144.08 62.6297 143.56C62.0497 143.04 61.2297 142.78 60.1697 142.78C59.3297 142.78 58.5297 142.91 57.7697 143.17C57.0097 143.41 56.2997 143.69 55.6397 144.01L54.8297 142.03C55.5297 141.65 56.3597 141.33 57.3197 141.07C58.2797 140.79 59.2797 140.65 60.3197 140.65ZM61.0997 149.23C59.0997 149.31 57.7097 149.63 56.9297 150.19C56.1697 150.75 55.7897 151.54 55.7897 152.56C55.7897 153.46 56.0597 154.12 56.5997 154.54C57.1597 154.96 57.8697 155.17 58.7297 155.17C60.0897 155.17 61.2197 154.8 62.1197 154.06C63.0197 153.3 63.4697 152.14 63.4697 150.58V149.14L61.0997 149.23ZM73.6861 140.92V147.61H82.4161V140.92H85.0561V157H82.4161V149.83H73.6861V157H71.0461V140.92H73.6861ZM92.6377 150.73C92.6377 150.91 92.6277 151.17 92.6077 151.51C92.6077 151.83 92.5977 152.18 92.5777 152.56C92.5577 152.92 92.5377 153.27 92.5177 153.61C92.4977 153.93 92.4777 154.19 92.4577 154.39L101.068 140.92H104.308V157H101.848V147.52C101.848 147.2 101.848 146.78 101.848 146.26C101.868 145.74 101.888 145.23 101.908 144.73C101.928 144.21 101.948 143.82 101.968 143.56L93.4177 157H90.1477V140.92H92.6377V150.73ZM125.295 162.58H122.715V157H109.425V140.92H112.065V154.78H120.375V140.92H123.015V154.81H125.295V162.58ZM134.47 140.65C136.43 140.65 137.88 141.08 138.82 141.94C139.76 142.8 140.23 144.17 140.23 146.05V157H138.31L137.8 154.72H137.68C137.22 155.3 136.74 155.79 136.24 156.19C135.76 156.57 135.2 156.85 134.56 157.03C133.94 157.21 133.18 157.3 132.28 157.3C131.32 157.3 130.45 157.13 129.67 156.79C128.91 156.45 128.31 155.93 127.87 155.23C127.43 154.51 127.21 153.61 127.21 152.53C127.21 150.93 127.84 149.7 129.1 148.84C130.36 147.96 132.3 147.48 134.92 147.4L137.65 147.31V146.35C137.65 145.01 137.36 144.08 136.78 143.56C136.2 143.04 135.38 142.78 134.32 142.78C133.48 142.78 132.68 142.91 131.92 143.17C131.16 143.41 130.45 143.69 129.79 144.01L128.98 142.03C129.68 141.65 130.51 141.33 131.47 141.07C132.43 140.79 133.43 140.65 134.47 140.65ZM135.25 149.23C133.25 149.31 131.86 149.63 131.08 150.19C130.32 150.75 129.94 151.54 129.94 152.56C129.94 153.46 130.21 154.12 130.75 154.54C131.31 154.96 132.02 155.17 132.88 155.17C134.24 155.17 135.37 154.8 136.27 154.06C137.17 153.3 137.62 152.14 137.62 150.58V149.14L135.25 149.23ZM166.411 140.92V147.61H175.141V140.92H177.781V157H175.141V149.83H166.411V157H163.771V140.92H166.411ZM189.082 140.62C190.462 140.62 191.642 140.92 192.622 141.52C193.622 142.12 194.382 142.97 194.902 144.07C195.442 145.15 195.712 146.42 195.712 147.88V149.47H184.702C184.742 151.29 185.202 152.68 186.082 153.64C186.982 154.58 188.232 155.05 189.832 155.05C190.852 155.05 191.752 154.96 192.532 154.78C193.332 154.58 194.152 154.3 194.992 153.94V156.25C194.172 156.61 193.362 156.87 192.562 157.03C191.762 157.21 190.812 157.3 189.712 157.3C188.192 157.3 186.842 156.99 185.662 156.37C184.502 155.75 183.592 154.83 182.932 153.61C182.292 152.37 181.972 150.86 181.972 149.08C181.972 147.32 182.262 145.81 182.842 144.55C183.442 143.29 184.272 142.32 185.332 141.64C186.412 140.96 187.662 140.62 189.082 140.62ZM189.052 142.78C187.792 142.78 186.792 143.19 186.052 144.01C185.332 144.81 184.902 145.93 184.762 147.37H192.952C192.952 146.45 192.812 145.65 192.532 144.97C192.252 144.29 191.822 143.76 191.242 143.38C190.682 142.98 189.952 142.78 189.052 142.78ZM221.02 140.92V147.61H229.75V140.92H232.39V157H229.75V149.83H221.02V157H218.38V140.92H221.02ZM243.572 140.65C245.532 140.65 246.982 141.08 247.922 141.94C248.862 142.8 249.332 144.17 249.332 146.05V157H247.412L246.902 154.72H246.782C246.322 155.3 245.842 155.79 245.342 156.19C244.862 156.57 244.302 156.85 243.662 157.03C243.042 157.21 242.282 157.3 241.382 157.3C240.422 157.3 239.552 157.13 238.772 156.79C238.012 156.45 237.412 155.93 236.972 155.23C236.532 154.51 236.312 153.61 236.312 152.53C236.312 150.93 236.942 149.7 238.202 148.84C239.462 147.96 241.402 147.48 244.022 147.4L246.752 147.31V146.35C246.752 145.01 246.462 144.08 245.882 143.56C245.302 143.04 244.482 142.78 243.422 142.78C242.582 142.78 241.782 142.91 241.022 143.17C240.262 143.41 239.552 143.69 238.892 144.01L238.082 142.03C238.782 141.65 239.612 141.33 240.572 141.07C241.532 140.79 242.532 140.65 243.572 140.65ZM244.352 149.23C242.352 149.31 240.962 149.63 240.182 150.19C239.422 150.75 239.042 151.54 239.042 152.56C239.042 153.46 239.312 154.12 239.852 154.54C240.412 154.96 241.122 155.17 241.982 155.17C243.342 155.17 244.472 154.8 245.372 154.06C246.272 153.3 246.722 152.14 246.722 150.58V149.14L244.352 149.23ZM267.318 134.26C267.238 135.26 266.988 136.1 266.568 136.78C266.168 137.46 265.568 137.97 264.768 138.31C263.968 138.65 262.928 138.82 261.648 138.82C260.348 138.82 259.298 138.65 258.498 138.31C257.718 137.97 257.148 137.47 256.788 136.81C256.428 136.13 256.208 135.28 256.128 134.26H258.588C258.688 135.34 258.968 136.07 259.428 136.45C259.908 136.81 260.668 136.99 261.708 136.99C262.628 136.99 263.348 136.8 263.868 136.42C264.408 136.02 264.728 135.3 264.828 134.26H267.318ZM256.788 150.73C256.788 150.91 256.778 151.17 256.758 151.51C256.758 151.83 256.748 152.18 256.728 152.56C256.708 152.92 256.688 153.27 256.668 153.61C256.648 153.93 256.628 154.19 256.608 154.39L265.218 140.92H268.458V157H265.998V147.52C265.998 147.2 265.998 146.78 265.998 146.26C266.018 145.74 266.038 145.23 266.058 144.73C266.078 144.21 266.098 143.82 266.118 143.56L257.568 157H254.298V140.92H256.788V150.73ZM285.515 140.92V154.78H287.855V162.58H285.305V157H274.115V162.58H271.595V154.78H272.885C273.805 153.5 274.565 152.11 275.165 150.61C275.785 149.09 276.245 147.51 276.545 145.87C276.865 144.21 277.035 142.56 277.055 140.92H285.515ZM279.395 142.99C279.315 144.35 279.105 145.76 278.765 147.22C278.425 148.66 277.985 150.04 277.445 151.36C276.925 152.68 276.315 153.82 275.615 154.78H282.965V142.99H279.395ZM297.217 140.62C298.597 140.62 299.777 140.92 300.757 141.52C301.757 142.12 302.517 142.97 303.037 144.07C303.577 145.15 303.847 146.42 303.847 147.88V149.47H292.837C292.877 151.29 293.337 152.68 294.217 153.64C295.117 154.58 296.367 155.05 297.967 155.05C298.987 155.05 299.887 154.96 300.667 154.78C301.467 154.58 302.287 154.3 303.127 153.94V156.25C302.307 156.61 301.497 156.87 300.697 157.03C299.897 157.21 298.947 157.3 297.847 157.3C296.327 157.3 294.977 156.99 293.797 156.37C292.637 155.75 291.727 154.83 291.067 153.61C290.427 152.37 290.107 150.86 290.107 149.08C290.107 147.32 290.397 145.81 290.977 144.55C291.577 143.29 292.407 142.32 293.467 141.64C294.547 140.96 295.797 140.62 297.217 140.62ZM297.187 142.78C295.927 142.78 294.927 143.19 294.187 144.01C293.467 144.81 293.037 145.93 292.897 147.37H301.087C301.087 146.45 300.947 145.65 300.667 144.97C300.387 144.29 299.957 143.76 299.377 143.38C298.817 142.98 298.087 142.78 297.187 142.78ZM310.581 140.92V147.61H319.311V140.92H321.951V157H319.311V149.83H310.581V157H307.941V140.92H310.581ZM333.132 140.65C335.092 140.65 336.542 141.08 337.482 141.94C338.422 142.8 338.892 144.17 338.892 146.05V157H336.972L336.462 154.72H336.342C335.882 155.3 335.402 155.79 334.902 156.19C334.422 156.57 333.862 156.85 333.222 157.03C332.602 157.21 331.842 157.3 330.942 157.3C329.982 157.3 329.112 157.13 328.332 156.79C327.572 156.45 326.972 155.93 326.532 155.23C326.092 154.51 325.872 153.61 325.872 152.53C325.872 150.93 326.502 149.7 327.762 148.84C329.022 147.96 330.962 147.48 333.582 147.4L336.312 147.31V146.35C336.312 145.01 336.022 144.08 335.442 143.56C334.862 143.04 334.042 142.78 332.982 142.78C332.142 142.78 331.342 142.91 330.582 143.17C329.822 143.41 329.112 143.69 328.452 144.01L327.642 142.03C328.342 141.65 329.172 141.33 330.132 141.07C331.092 140.79 332.092 140.65 333.132 140.65ZM333.912 149.23C331.912 149.31 330.522 149.63 329.742 150.19C328.982 150.75 328.602 151.54 328.602 152.56C328.602 153.46 328.872 154.12 329.412 154.54C329.972 154.96 330.682 155.17 331.542 155.17C332.902 155.17 334.032 154.8 334.932 154.06C335.832 153.3 336.282 152.14 336.282 150.58V149.14L333.912 149.23ZM348.884 152.83C349.334 152.83 349.749 152.925 350.129 153.115C350.509 153.305 350.814 153.6 351.044 154C351.284 154.4 351.404 154.92 351.404 155.56C351.404 156 351.334 156.54 351.194 157.18C351.054 157.83 350.804 158.5 350.444 159.19C350.084 159.88 349.564 160.53 348.884 161.14C348.634 161.37 348.404 161.535 348.194 161.635C347.984 161.735 347.804 161.785 347.654 161.785C347.494 161.785 347.359 161.735 347.249 161.635C347.139 161.545 347.084 161.415 347.084 161.245C347.084 161.085 347.124 160.925 347.204 160.765C347.294 160.605 347.464 160.425 347.714 160.225C348.024 159.985 348.339 159.66 348.659 159.25C348.989 158.85 349.209 158.33 349.319 157.69C349.259 157.69 349.189 157.69 349.109 157.69C349.039 157.7 348.964 157.705 348.884 157.705C348.184 157.705 347.599 157.47 347.129 157C346.659 156.54 346.424 155.965 346.424 155.275C346.424 154.815 346.529 154.405 346.739 154.045C346.959 153.675 347.254 153.38 347.624 153.16C348.004 152.94 348.424 152.83 348.884 152.83ZM393.937 144.97C393.937 145.97 393.637 146.75 393.037 147.31C392.437 147.87 391.667 148.25 390.727 148.45V148.57C391.727 148.71 392.597 149.07 393.337 149.65C394.077 150.21 394.447 151.09 394.447 152.29C394.447 152.97 394.317 153.6 394.057 154.18C393.817 154.76 393.437 155.26 392.917 155.68C392.397 156.1 391.727 156.43 390.907 156.67C390.087 156.89 389.097 157 387.937 157H381.007V140.92H387.907C389.047 140.92 390.067 141.05 390.967 141.31C391.887 141.55 392.607 141.97 393.127 142.57C393.667 143.15 393.937 143.95 393.937 144.97ZM391.717 152.29C391.717 151.37 391.367 150.71 390.667 150.31C389.967 149.91 388.937 149.71 387.577 149.71H383.647V154.87H387.637C388.957 154.87 389.967 154.68 390.667 154.3C391.367 153.9 391.717 153.23 391.717 152.29ZM391.267 145.3C391.267 144.54 390.987 143.99 390.427 143.65C389.887 143.29 388.997 143.11 387.757 143.11H383.647V147.52H387.277C388.577 147.52 389.567 147.34 390.247 146.98C390.927 146.62 391.267 146.06 391.267 145.3ZM412.272 148.93C412.272 150.27 412.092 151.46 411.732 152.5C411.392 153.52 410.892 154.39 410.232 155.11C409.592 155.83 408.802 156.38 407.862 156.76C406.942 157.12 405.912 157.3 404.772 157.3C403.712 157.3 402.732 157.12 401.832 156.76C400.932 156.38 400.152 155.83 399.492 155.11C398.832 154.39 398.312 153.52 397.932 152.5C397.572 151.46 397.392 150.27 397.392 148.93C397.392 147.15 397.692 145.65 398.292 144.43C398.892 143.19 399.752 142.25 400.872 141.61C401.992 140.95 403.322 140.62 404.862 140.62C406.322 140.62 407.602 140.95 408.702 141.61C409.822 142.25 410.692 143.19 411.312 144.43C411.952 145.65 412.272 147.15 412.272 148.93ZM400.122 148.93C400.122 150.19 400.282 151.29 400.602 152.23C400.942 153.15 401.462 153.86 402.162 154.36C402.862 154.86 403.752 155.11 404.832 155.11C405.912 155.11 406.802 154.86 407.502 154.36C408.202 153.86 408.712 153.15 409.032 152.23C409.372 151.29 409.542 150.19 409.542 148.93C409.542 147.65 409.372 146.56 409.032 145.66C408.692 144.76 408.172 144.07 407.472 143.59C406.792 143.09 405.902 142.84 404.802 142.84C403.162 142.84 401.972 143.38 401.232 144.46C400.492 145.54 400.122 147.03 400.122 148.93ZM420.686 140.62C421.906 140.62 422.966 140.79 423.866 141.13C424.766 141.45 425.466 141.93 425.966 142.57C426.466 143.19 426.716 143.95 426.716 144.85C426.716 145.83 426.446 146.61 425.906 147.19C425.366 147.75 424.626 148.16 423.686 148.42V148.54C424.326 148.72 424.916 148.97 425.456 149.29C425.996 149.61 426.426 150.03 426.746 150.55C427.086 151.07 427.256 151.74 427.256 152.56C427.256 153.44 427.006 154.24 426.506 154.96C426.026 155.68 425.276 156.25 424.256 156.67C423.256 157.09 421.966 157.3 420.386 157.3C419.626 157.3 418.896 157.26 418.196 157.18C417.516 157.1 416.896 156.98 416.336 156.82C415.796 156.66 415.316 156.47 414.896 156.25V153.88C415.576 154.2 416.376 154.49 417.296 154.75C418.236 155.01 419.256 155.14 420.356 155.14C421.156 155.14 421.876 155.05 422.516 154.87C423.176 154.69 423.696 154.41 424.076 154.03C424.456 153.63 424.646 153.09 424.646 152.41C424.646 151.79 424.476 151.29 424.136 150.91C423.796 150.51 423.286 150.21 422.606 150.01C421.946 149.81 421.096 149.71 420.056 149.71H417.896V147.55H419.636C421.016 147.55 422.116 147.37 422.936 147.01C423.776 146.63 424.196 145.99 424.196 145.09C424.196 144.33 423.876 143.76 423.236 143.38C422.616 143 421.716 142.81 420.536 142.81C419.656 142.81 418.876 142.9 418.196 143.08C417.536 143.24 416.806 143.49 416.006 143.83L415.076 141.73C415.936 141.35 416.836 141.07 417.776 140.89C418.716 140.71 419.686 140.62 420.686 140.62ZM448.413 140.92V157H446.043V146.74C446.043 146.32 446.053 145.88 446.073 145.42C446.113 144.96 446.153 144.51 446.193 144.07H446.103L440.853 157H438.633L433.533 144.07H433.443C433.483 144.51 433.503 144.96 433.503 145.42C433.523 145.88 433.533 146.35 433.533 146.83V157H431.163V140.92H434.673L439.743 153.85L444.903 140.92H448.413ZM467.526 148.93C467.526 150.27 467.346 151.46 466.986 152.5C466.646 153.52 466.146 154.39 465.486 155.11C464.846 155.83 464.056 156.38 463.116 156.76C462.196 157.12 461.166 157.3 460.026 157.3C458.966 157.3 457.986 157.12 457.086 156.76C456.186 156.38 455.406 155.83 454.746 155.11C454.086 154.39 453.566 153.52 453.186 152.5C452.826 151.46 452.646 150.27 452.646 148.93C452.646 147.15 452.946 145.65 453.546 144.43C454.146 143.19 455.006 142.25 456.126 141.61C457.246 140.95 458.576 140.62 460.116 140.62C461.576 140.62 462.856 140.95 463.956 141.61C465.076 142.25 465.946 143.19 466.566 144.43C467.206 145.65 467.526 147.15 467.526 148.93ZM455.376 148.93C455.376 150.19 455.536 151.29 455.856 152.23C456.196 153.15 456.716 153.86 457.416 154.36C458.116 154.86 459.006 155.11 460.086 155.11C461.166 155.11 462.056 154.86 462.756 154.36C463.456 153.86 463.966 153.15 464.286 152.23C464.626 151.29 464.796 150.19 464.796 148.93C464.796 147.65 464.626 146.56 464.286 145.66C463.946 144.76 463.426 144.07 462.726 143.59C462.046 143.09 461.156 142.84 460.056 142.84C458.416 142.84 457.226 143.38 456.486 144.46C455.746 145.54 455.376 147.03 455.376 148.93ZM490.414 140.92L483.784 148.72L490.984 157H487.984L481.024 148.84V157H478.564V148.84L471.604 157H468.604L475.804 148.72L469.174 140.92H472.054L478.564 148.72V140.92H481.024V148.72L487.564 140.92H490.414ZM496.264 140.92V147.61H504.994V140.92H507.634V157H504.994V149.83H496.264V157H493.624V140.92H496.264ZM526.706 148.93C526.706 150.27 526.526 151.46 526.166 152.5C525.826 153.52 525.326 154.39 524.666 155.11C524.026 155.83 523.236 156.38 522.296 156.76C521.376 157.12 520.346 157.3 519.206 157.3C518.146 157.3 517.166 157.12 516.266 156.76C515.366 156.38 514.586 155.83 513.926 155.11C513.266 154.39 512.746 153.52 512.366 152.5C512.006 151.46 511.826 150.27 511.826 148.93C511.826 147.15 512.126 145.65 512.726 144.43C513.326 143.19 514.186 142.25 515.306 141.61C516.426 140.95 517.756 140.62 519.296 140.62C520.756 140.62 522.036 140.95 523.136 141.61C524.256 142.25 525.126 143.19 525.746 144.43C526.386 145.65 526.706 147.15 526.706 148.93ZM514.556 148.93C514.556 150.19 514.716 151.29 515.036 152.23C515.376 153.15 515.896 153.86 516.596 154.36C517.296 154.86 518.186 155.11 519.266 155.11C520.346 155.11 521.236 154.86 521.936 154.36C522.636 153.86 523.146 153.15 523.466 152.23C523.806 151.29 523.976 150.19 523.976 148.93C523.976 147.65 523.806 146.56 523.466 145.66C523.126 144.76 522.606 144.07 521.906 143.59C521.226 143.09 520.336 142.84 519.236 142.84C517.596 142.84 516.406 143.38 515.666 144.46C514.926 145.54 514.556 147.03 514.556 148.93ZM16.53 184.93C16.53 186.27 16.35 187.46 15.99 188.5C15.65 189.52 15.15 190.39 14.49 191.11C13.85 191.83 13.06 192.38 12.12 192.76C11.2 193.12 10.17 193.3 9.03 193.3C7.97 193.3 6.99 193.12 6.09 192.76C5.19 192.38 4.41 191.83 3.75 191.11C3.09 190.39 2.57 189.52 2.19 188.5C1.83 187.46 1.65 186.27 1.65 184.93C1.65 183.15 1.95 181.65 2.55 180.43C3.15 179.19 4.01 178.25 5.13 177.61C6.25 176.95 7.58 176.62 9.12 176.62C10.58 176.62 11.86 176.95 12.96 177.61C14.08 178.25 14.95 179.19 15.57 180.43C16.21 181.65 16.53 183.15 16.53 184.93ZM4.38 184.93C4.38 186.19 4.54 187.29 4.86 188.23C5.2 189.15 5.72 189.86 6.42 190.36C7.12 190.86 8.01 191.11 9.09 191.11C10.17 191.11 11.06 190.86 11.76 190.36C12.46 189.86 12.97 189.15 13.29 188.23C13.63 187.29 13.8 186.19 13.8 184.93C13.8 183.65 13.63 182.56 13.29 181.66C12.95 180.76 12.43 180.07 11.73 179.59C11.05 179.09 10.16 178.84 9.06 178.84C7.42 178.84 6.23 179.38 5.49 180.46C4.75 181.54 4.38 183.03 4.38 184.93ZM23.3541 176.92V183.61H32.0841V176.92H34.7241V193H32.0841V185.83H23.3541V193H20.7141V176.92H23.3541ZM45.9056 176.65C47.8656 176.65 49.3156 177.08 50.2556 177.94C51.1956 178.8 51.6656 180.17 51.6656 182.05V193H49.7456L49.2356 190.72H49.1156C48.6556 191.3 48.1756 191.79 47.6756 192.19C47.1956 192.57 46.6356 192.85 45.9956 193.03C45.3756 193.21 44.6156 193.3 43.7156 193.3C42.7556 193.3 41.8856 193.13 41.1056 192.79C40.3456 192.45 39.7456 191.93 39.3056 191.23C38.8656 190.51 38.6456 189.61 38.6456 188.53C38.6456 186.93 39.2756 185.7 40.5356 184.84C41.7956 183.96 43.7356 183.48 46.3556 183.4L49.0856 183.31V182.35C49.0856 181.01 48.7956 180.08 48.2156 179.56C47.6356 179.04 46.8156 178.78 45.7556 178.78C44.9156 178.78 44.1156 178.91 43.3556 179.17C42.5956 179.41 41.8856 179.69 41.2256 180.01L40.4156 178.03C41.1156 177.65 41.9456 177.33 42.9056 177.07C43.8656 176.79 44.8656 176.65 45.9056 176.65ZM46.6856 185.23C44.6856 185.31 43.2956 185.63 42.5156 186.19C41.7556 186.75 41.3756 187.54 41.3756 188.56C41.3756 189.46 41.6456 190.12 42.1856 190.54C42.7456 190.96 43.4556 191.17 44.3156 191.17C45.6756 191.17 46.8056 190.8 47.7056 190.06C48.6056 189.3 49.0556 188.14 49.0556 186.58V185.14L46.6856 185.23ZM77.8463 176.92V183.61H86.5763V176.92H89.2163V193H86.5763V185.83H77.8463V193H75.2063V176.92H77.8463ZM100.398 176.65C102.358 176.65 103.808 177.08 104.748 177.94C105.688 178.8 106.158 180.17 106.158 182.05V193H104.238L103.728 190.72H103.608C103.148 191.3 102.668 191.79 102.168 192.19C101.688 192.57 101.128 192.85 100.488 193.03C99.8678 193.21 99.1078 193.3 98.2078 193.3C97.2478 193.3 96.3778 193.13 95.5978 192.79C94.8378 192.45 94.2378 191.93 93.7978 191.23C93.3578 190.51 93.1378 189.61 93.1378 188.53C93.1378 186.93 93.7678 185.7 95.0278 184.84C96.2878 183.96 98.2278 183.48 100.848 183.4L103.578 183.31V182.35C103.578 181.01 103.288 180.08 102.708 179.56C102.128 179.04 101.308 178.78 100.248 178.78C99.4078 178.78 98.6078 178.91 97.8478 179.17C97.0878 179.41 96.3778 179.69 95.7178 180.01L94.9078 178.03C95.6078 177.65 96.4378 177.33 97.3978 177.07C98.3578 176.79 99.3578 176.65 100.398 176.65ZM101.178 185.23C99.1778 185.31 97.7878 185.63 97.0078 186.19C96.2478 186.75 95.8678 187.54 95.8678 188.56C95.8678 189.46 96.1378 190.12 96.6778 190.54C97.2378 190.96 97.9478 191.17 98.8078 191.17C100.168 191.17 101.298 190.8 102.198 190.06C103.098 189.3 103.548 188.14 103.548 186.58V185.14L101.178 185.23ZM114.934 184.78L109.384 176.92H112.384L116.524 182.98L120.634 176.92H123.604L118.054 184.78L123.904 193H120.904L116.524 186.58L112.084 193H109.114L114.934 184.78ZM140.397 184.93C140.397 186.27 140.217 187.46 139.857 188.5C139.517 189.52 139.017 190.39 138.357 191.11C137.717 191.83 136.927 192.38 135.987 192.76C135.067 193.12 134.037 193.3 132.897 193.3C131.837 193.3 130.857 193.12 129.957 192.76C129.057 192.38 128.277 191.83 127.617 191.11C126.957 190.39 126.437 189.52 126.057 188.5C125.697 187.46 125.517 186.27 125.517 184.93C125.517 183.15 125.817 181.65 126.417 180.43C127.017 179.19 127.877 178.25 128.997 177.61C130.117 176.95 131.447 176.62 132.987 176.62C134.447 176.62 135.727 176.95 136.827 177.61C137.947 178.25 138.817 179.19 139.437 180.43C140.077 181.65 140.397 183.15 140.397 184.93ZM128.247 184.93C128.247 186.19 128.407 187.29 128.727 188.23C129.067 189.15 129.587 189.86 130.287 190.36C130.987 190.86 131.877 191.11 132.957 191.11C134.037 191.11 134.927 190.86 135.627 190.36C136.327 189.86 136.837 189.15 137.157 188.23C137.497 187.29 137.667 186.19 137.667 184.93C137.667 183.65 137.497 182.56 137.157 181.66C136.817 180.76 136.297 180.07 135.597 179.59C134.917 179.09 134.027 178.84 132.927 178.84C131.287 178.84 130.097 179.38 129.357 180.46C128.617 181.54 128.247 183.03 128.247 184.93ZM156.521 176.92V190.78H158.861V198.58H156.311V193H145.121V198.58H142.601V190.78H143.891C144.811 189.5 145.571 188.11 146.171 186.61C146.791 185.09 147.251 183.51 147.551 181.87C147.871 180.21 148.041 178.56 148.061 176.92H156.521ZM150.401 178.99C150.321 180.35 150.111 181.76 149.771 183.22C149.431 184.66 148.991 186.04 148.451 187.36C147.931 188.68 147.321 189.82 146.621 190.78H153.971V178.99H150.401ZM164.503 186.73C164.503 186.91 164.493 187.17 164.473 187.51C164.473 187.83 164.463 188.18 164.443 188.56C164.423 188.92 164.403 189.27 164.383 189.61C164.363 189.93 164.343 190.19 164.323 190.39L172.933 176.92H176.173V193H173.713V183.52C173.713 183.2 173.713 182.78 173.713 182.26C173.733 181.74 173.753 181.23 173.773 180.73C173.793 180.21 173.813 179.82 173.833 179.56L165.283 193H162.013V176.92H164.503V186.73ZM192.39 179.14H187.14V193H184.53V179.14H179.34V176.92H192.39V179.14ZM201.715 193.3C200.295 193.3 199.025 193.01 197.905 192.43C196.805 191.85 195.935 190.95 195.295 189.73C194.675 188.51 194.365 186.95 194.365 185.05C194.365 183.07 194.695 181.46 195.355 180.22C196.015 178.98 196.905 178.07 198.025 177.49C199.165 176.91 200.455 176.62 201.895 176.62C202.715 176.62 203.505 176.71 204.265 176.89C205.025 177.05 205.645 177.25 206.125 177.49L205.315 179.68C204.835 179.5 204.275 179.33 203.635 179.17C202.995 179.01 202.395 178.93 201.835 178.93C200.755 178.93 199.865 179.16 199.165 179.62C198.465 180.08 197.945 180.76 197.605 181.66C197.265 182.56 197.095 183.68 197.095 185.02C197.095 186.3 197.265 187.39 197.605 188.29C197.945 189.19 198.455 189.87 199.135 190.33C199.815 190.79 200.665 191.02 201.685 191.02C202.565 191.02 203.335 190.93 203.995 190.75C204.675 190.57 205.295 190.35 205.855 190.09V192.43C205.315 192.71 204.715 192.92 204.055 193.06C203.415 193.22 202.635 193.3 201.715 193.3ZM210.669 193H207.609L212.199 186.25C211.579 186.09 210.979 185.84 210.399 185.5C209.819 185.14 209.349 184.65 208.989 184.03C208.629 183.39 208.449 182.6 208.449 181.66C208.449 180.12 208.969 178.95 210.009 178.15C211.049 177.33 212.429 176.92 214.149 176.92H221.349V193H218.709V186.61H214.809L210.669 193ZM210.999 181.69C210.999 182.61 211.339 183.3 212.019 183.76C212.719 184.2 213.689 184.42 214.929 184.42H218.709V179.11H214.419C213.199 179.11 212.319 179.35 211.779 179.83C211.259 180.31 210.999 180.93 210.999 181.69ZM257.941 180.97C257.941 181.97 257.641 182.75 257.041 183.31C256.441 183.87 255.671 184.25 254.731 184.45V184.57C255.731 184.71 256.601 185.07 257.341 185.65C258.081 186.21 258.451 187.09 258.451 188.29C258.451 188.97 258.321 189.6 258.061 190.18C257.821 190.76 257.441 191.26 256.921 191.68C256.401 192.1 255.731 192.43 254.911 192.67C254.091 192.89 253.101 193 251.941 193H245.011V176.92H251.911C253.051 176.92 254.071 177.05 254.971 177.31C255.891 177.55 256.611 177.97 257.131 178.57C257.671 179.15 257.941 179.95 257.941 180.97ZM255.721 188.29C255.721 187.37 255.371 186.71 254.671 186.31C253.971 185.91 252.941 185.71 251.581 185.71H247.651V190.87H251.641C252.961 190.87 253.971 190.68 254.671 190.3C255.371 189.9 255.721 189.23 255.721 188.29ZM255.271 181.3C255.271 180.54 254.991 179.99 254.431 179.65C253.891 179.29 253.001 179.11 251.761 179.11H247.651V183.52H251.281C252.581 183.52 253.571 183.34 254.251 182.98C254.931 182.62 255.271 182.06 255.271 181.3ZM288.52 176.62C290.5 176.62 292.09 177.31 293.29 178.69C294.51 180.07 295.12 182.15 295.12 184.93C295.12 186.75 294.84 188.29 294.28 189.55C293.74 190.79 292.97 191.73 291.97 192.37C290.99 192.99 289.83 193.3 288.49 193.3C287.67 193.3 286.94 193.19 286.3 192.97C285.66 192.75 285.11 192.47 284.65 192.13C284.21 191.77 283.83 191.38 283.51 190.96H283.33C283.37 191.3 283.41 191.73 283.45 192.25C283.49 192.77 283.51 193.22 283.51 193.6V200.2H280.87V176.92H283.03L283.39 179.11H283.51C283.83 178.65 284.21 178.23 284.65 177.85C285.11 177.47 285.65 177.17 286.27 176.95C286.91 176.73 287.66 176.62 288.52 176.62ZM288.04 178.84C286.96 178.84 286.09 179.05 285.43 179.47C284.77 179.87 284.29 180.48 283.99 181.3C283.69 182.12 283.53 183.16 283.51 184.42V184.93C283.51 186.25 283.65 187.37 283.93 188.29C284.21 189.21 284.68 189.91 285.34 190.39C286.02 190.87 286.94 191.11 288.1 191.11C289.08 191.11 289.88 190.84 290.5 190.3C291.14 189.76 291.61 189.03 291.91 188.11C292.23 187.17 292.39 186.1 292.39 184.9C292.39 183.06 292.03 181.59 291.31 180.49C290.61 179.39 289.52 178.84 288.04 178.84ZM305.417 176.65C307.377 176.65 308.827 177.08 309.767 177.94C310.707 178.8 311.177 180.17 311.177 182.05V193H309.257L308.747 190.72H308.627C308.167 191.3 307.687 191.79 307.187 192.19C306.707 192.57 306.147 192.85 305.507 193.03C304.887 193.21 304.127 193.3 303.227 193.3C302.267 193.3 301.397 193.13 300.617 192.79C299.857 192.45 299.257 191.93 298.817 191.23C298.377 190.51 298.157 189.61 298.157 188.53C298.157 186.93 298.787 185.7 300.047 184.84C301.307 183.96 303.247 183.48 305.867 183.4L308.597 183.31V182.35C308.597 181.01 308.307 180.08 307.727 179.56C307.147 179.04 306.327 178.78 305.267 178.78C304.427 178.78 303.627 178.91 302.867 179.17C302.107 179.41 301.397 179.69 300.737 180.01L299.927 178.03C300.627 177.65 301.457 177.33 302.417 177.07C303.377 176.79 304.377 176.65 305.417 176.65ZM306.197 185.23C304.197 185.31 302.807 185.63 302.027 186.19C301.267 186.75 300.887 187.54 300.887 188.56C300.887 189.46 301.157 190.12 301.697 190.54C302.257 190.96 302.967 191.17 303.827 191.17C305.187 191.17 306.317 190.8 307.217 190.06C308.117 189.3 308.567 188.14 308.567 186.58V185.14L306.197 185.23ZM320.374 176.62C321.594 176.62 322.654 176.79 323.554 177.13C324.454 177.45 325.154 177.93 325.654 178.57C326.154 179.19 326.404 179.95 326.404 180.85C326.404 181.83 326.134 182.61 325.594 183.19C325.054 183.75 324.314 184.16 323.374 184.42V184.54C324.014 184.72 324.604 184.97 325.144 185.29C325.684 185.61 326.114 186.03 326.434 186.55C326.774 187.07 326.944 187.74 326.944 188.56C326.944 189.44 326.694 190.24 326.194 190.96C325.714 191.68 324.964 192.25 323.944 192.67C322.944 193.09 321.654 193.3 320.074 193.3C319.314 193.3 318.584 193.26 317.884 193.18C317.204 193.1 316.584 192.98 316.024 192.82C315.484 192.66 315.004 192.47 314.584 192.25V189.88C315.264 190.2 316.064 190.49 316.984 190.75C317.924 191.01 318.944 191.14 320.044 191.14C320.844 191.14 321.564 191.05 322.204 190.87C322.864 190.69 323.384 190.41 323.764 190.03C324.144 189.63 324.334 189.09 324.334 188.41C324.334 187.79 324.164 187.29 323.824 186.91C323.484 186.51 322.974 186.21 322.294 186.01C321.634 185.81 320.784 185.71 319.744 185.71H317.584V183.55H319.324C320.704 183.55 321.804 183.37 322.624 183.01C323.464 182.63 323.884 181.99 323.884 181.09C323.884 180.33 323.564 179.76 322.924 179.38C322.304 179 321.404 178.81 320.224 178.81C319.344 178.81 318.564 178.9 317.884 179.08C317.224 179.24 316.494 179.49 315.694 179.83L314.764 177.73C315.624 177.35 316.524 177.07 317.464 176.89C318.404 176.71 319.374 176.62 320.374 176.62ZM338.501 176.62C340.481 176.62 342.071 177.31 343.271 178.69C344.491 180.07 345.101 182.15 345.101 184.93C345.101 186.75 344.821 188.29 344.261 189.55C343.721 190.79 342.951 191.73 341.951 192.37C340.971 192.99 339.811 193.3 338.471 193.3C337.651 193.3 336.921 193.19 336.281 192.97C335.641 192.75 335.091 192.47 334.631 192.13C334.191 191.77 333.811 191.38 333.491 190.96H333.311C333.351 191.3 333.391 191.73 333.431 192.25C333.471 192.77 333.491 193.22 333.491 193.6V200.2H330.851V176.92H333.011L333.371 179.11H333.491C333.811 178.65 334.191 178.23 334.631 177.85C335.091 177.47 335.631 177.17 336.251 176.95C336.891 176.73 337.641 176.62 338.501 176.62ZM338.021 178.84C336.941 178.84 336.071 179.05 335.411 179.47C334.751 179.87 334.271 180.48 333.971 181.3C333.671 182.12 333.511 183.16 333.491 184.42V184.93C333.491 186.25 333.631 187.37 333.911 188.29C334.191 189.21 334.661 189.91 335.321 190.39C336.001 190.87 336.921 191.11 338.081 191.11C339.061 191.11 339.861 190.84 340.481 190.3C341.121 189.76 341.591 189.03 341.891 188.11C342.211 187.17 342.371 186.1 342.371 184.9C342.371 183.06 342.011 181.59 341.291 180.49C340.591 179.39 339.501 178.84 338.021 178.84ZM355.398 176.65C357.358 176.65 358.808 177.08 359.748 177.94C360.688 178.8 361.158 180.17 361.158 182.05V193H359.238L358.728 190.72H358.608C358.148 191.3 357.668 191.79 357.168 192.19C356.688 192.57 356.128 192.85 355.488 193.03C354.868 193.21 354.108 193.3 353.208 193.3C352.248 193.3 351.378 193.13 350.598 192.79C349.838 192.45 349.238 191.93 348.798 191.23C348.358 190.51 348.138 189.61 348.138 188.53C348.138 186.93 348.768 185.7 350.028 184.84C351.288 183.96 353.228 183.48 355.848 183.4L358.578 183.31V182.35C358.578 181.01 358.288 180.08 357.708 179.56C357.128 179.04 356.308 178.78 355.248 178.78C354.408 178.78 353.608 178.91 352.848 179.17C352.088 179.41 351.378 179.69 350.718 180.01L349.908 178.03C350.608 177.65 351.438 177.33 352.398 177.07C353.358 176.79 354.358 176.65 355.398 176.65ZM356.178 185.23C354.178 185.31 352.788 185.63 352.008 186.19C351.248 186.75 350.868 187.54 350.868 188.56C350.868 189.46 351.138 190.12 351.678 190.54C352.238 190.96 352.948 191.17 353.808 191.17C355.168 191.17 356.298 190.8 357.198 190.06C358.098 189.3 358.548 188.14 358.548 186.58V185.14L356.178 185.23ZM365.284 183.34C365.284 181 365.514 179.01 365.974 177.37C366.454 175.71 367.184 174.39 368.164 173.41C369.164 172.41 370.444 171.74 372.004 171.4C373.304 171.12 374.574 170.87 375.814 170.65C377.054 170.43 378.214 170.23 379.294 170.05L379.744 172.36C379.224 172.44 378.644 172.54 378.004 172.66C377.364 172.76 376.714 172.87 376.054 172.99C375.394 173.09 374.754 173.2 374.134 173.32C373.534 173.42 373.004 173.52 372.544 173.62C371.884 173.76 371.294 174 370.774 174.34C370.254 174.66 369.804 175.1 369.424 175.66C369.064 176.22 368.774 176.91 368.554 177.73C368.334 178.55 368.204 179.52 368.164 180.64H368.344C368.624 180.26 369.004 179.87 369.484 179.47C369.984 179.07 370.574 178.73 371.254 178.45C371.954 178.17 372.744 178.03 373.624 178.03C375.024 178.03 376.184 178.34 377.104 178.96C378.044 179.56 378.744 180.4 379.204 181.48C379.684 182.56 379.924 183.82 379.924 185.26C379.924 187.04 379.614 188.53 378.994 189.73C378.374 190.93 377.514 191.83 376.414 192.43C375.314 193.01 374.034 193.3 372.574 193.3C371.474 193.3 370.474 193.09 369.574 192.67C368.674 192.23 367.904 191.59 367.264 190.75C366.624 189.91 366.134 188.87 365.794 187.63C365.454 186.39 365.284 184.96 365.284 183.34ZM372.784 191.11C373.664 191.11 374.424 190.93 375.064 190.57C375.724 190.21 376.234 189.62 376.594 188.8C376.954 187.98 377.134 186.89 377.134 185.53C377.134 183.89 376.824 182.6 376.204 181.66C375.604 180.7 374.604 180.22 373.204 180.22C372.324 180.22 371.524 180.42 370.804 180.82C370.084 181.2 369.484 181.64 369.004 182.14C368.524 182.64 368.184 183.06 367.984 183.4C367.984 184.38 368.054 185.33 368.194 186.25C368.334 187.17 368.574 188 368.914 188.74C369.274 189.46 369.764 190.04 370.384 190.48C371.024 190.9 371.824 191.11 372.784 191.11ZM398.063 184.93C398.063 186.27 397.883 187.46 397.523 188.5C397.183 189.52 396.683 190.39 396.023 191.11C395.383 191.83 394.593 192.38 393.653 192.76C392.733 193.12 391.703 193.3 390.563 193.3C389.503 193.3 388.523 193.12 387.623 192.76C386.723 192.38 385.943 191.83 385.283 191.11C384.623 190.39 384.103 189.52 383.723 188.5C383.363 187.46 383.183 186.27 383.183 184.93C383.183 183.15 383.483 181.65 384.083 180.43C384.683 179.19 385.543 178.25 386.663 177.61C387.783 176.95 389.113 176.62 390.653 176.62C392.113 176.62 393.393 176.95 394.493 177.61C395.613 178.25 396.483 179.19 397.103 180.43C397.743 181.65 398.063 183.15 398.063 184.93ZM385.913 184.93C385.913 186.19 386.073 187.29 386.393 188.23C386.733 189.15 387.253 189.86 387.953 190.36C388.653 190.86 389.543 191.11 390.623 191.11C391.703 191.11 392.593 190.86 393.293 190.36C393.993 189.86 394.503 189.15 394.823 188.23C395.163 187.29 395.333 186.19 395.333 184.93C395.333 183.65 395.163 182.56 394.823 181.66C394.483 180.76 393.963 180.07 393.263 179.59C392.583 179.09 391.693 178.84 390.593 178.84C388.953 178.84 387.763 179.38 387.023 180.46C386.283 181.54 385.913 183.03 385.913 184.93ZM413.054 179.14H407.804V193H405.194V179.14H400.004V176.92H413.054V179.14ZM425.732 176.92H428.612L421.742 184.66L429.182 193H426.122L418.862 184.84V193H416.222V176.92H418.862V184.72L425.732 176.92ZM437.725 176.62C439.105 176.62 440.285 176.92 441.265 177.52C442.265 178.12 443.025 178.97 443.545 180.07C444.085 181.15 444.355 182.42 444.355 183.88V185.47H433.345C433.385 187.29 433.845 188.68 434.725 189.64C435.625 190.58 436.875 191.05 438.475 191.05C439.495 191.05 440.395 190.96 441.175 190.78C441.975 190.58 442.795 190.3 443.635 189.94V192.25C442.815 192.61 442.005 192.87 441.205 193.03C440.405 193.21 439.455 193.3 438.355 193.3C436.835 193.3 435.485 192.99 434.305 192.37C433.145 191.75 432.235 190.83 431.575 189.61C430.935 188.37 430.615 186.86 430.615 185.08C430.615 183.32 430.905 181.81 431.485 180.55C432.085 179.29 432.915 178.32 433.975 177.64C435.055 176.96 436.305 176.62 437.725 176.62ZM437.695 178.78C436.435 178.78 435.435 179.19 434.695 180.01C433.975 180.81 433.545 181.93 433.405 183.37H441.595C441.595 182.45 441.455 181.65 441.175 180.97C440.895 180.29 440.465 179.76 439.885 179.38C439.325 178.98 438.595 178.78 437.695 178.78ZM454.358 193.555C453.908 193.555 453.498 193.445 453.128 193.225C452.758 193.005 452.463 192.715 452.243 192.355C452.033 191.985 451.928 191.575 451.928 191.125C451.928 190.665 452.033 190.255 452.243 189.895C452.463 189.525 452.758 189.235 453.128 189.025C453.498 188.805 453.908 188.695 454.358 188.695C454.808 188.695 455.213 188.805 455.573 189.025C455.943 189.235 456.233 189.525 456.443 189.895C456.663 190.255 456.773 190.665 456.773 191.125C456.773 191.575 456.663 191.985 456.443 192.355C456.233 192.715 455.943 193.005 455.573 193.225C455.213 193.445 454.808 193.555 454.358 193.555ZM472.933 193.555C472.483 193.555 472.073 193.445 471.703 193.225C471.333 193.005 471.038 192.715 470.818 192.355C470.608 191.985 470.503 191.575 470.503 191.125C470.503 190.665 470.608 190.255 470.818 189.895C471.038 189.525 471.333 189.235 471.703 189.025C472.073 188.805 472.483 188.695 472.933 188.695C473.383 188.695 473.788 188.805 474.148 189.025C474.518 189.235 474.808 189.525 475.018 189.895C475.238 190.255 475.348 190.665 475.348 191.125C475.348 191.575 475.238 191.985 475.018 192.355C474.808 192.715 474.518 193.005 474.148 193.225C473.788 193.445 473.383 193.555 472.933 193.555ZM491.507 193.555C491.057 193.555 490.647 193.445 490.277 193.225C489.907 193.005 489.612 192.715 489.392 192.355C489.182 191.985 489.077 191.575 489.077 191.125C489.077 190.665 489.182 190.255 489.392 189.895C489.612 189.525 489.907 189.235 490.277 189.025C490.647 188.805 491.057 188.695 491.507 188.695C491.957 188.695 492.362 188.805 492.722 189.025C493.092 189.235 493.382 189.525 493.592 189.895C493.812 190.255 493.922 190.665 493.922 191.125C493.922 191.575 493.812 191.985 493.592 192.355C493.382 192.715 493.092 193.005 492.722 193.225C492.362 193.445 491.957 193.555 491.507 193.555Z" fill="black"/>
</svg>
