<svg width="36" height="32" viewBox="0 0 36 32" fill="none" xmlns="http://www.w3.org/2000/svg">
<path d="M1.04297 1V24.3587C1.04297 25.0661 1.41657 25.7208 2.02551 26.0806L9.02551 30.217C10.3587 31.0048 12.043 30.0437 12.043 28.4951V7.73607C12.043 6.97852 11.615 6.286 10.9374 5.94721L1.04297 1ZM1.04297 1H18.543C19.6475 1 20.543 1.89543 20.543 3V14.5M13.043 28H18.543C19.6475 28 20.543 27.1046 20.543 26V18M20.543 18H18.793C17.8265 18 17.043 17.2165 17.043 16.25V16.25C17.043 15.2835 17.8265 14.5 18.793 14.5H20.543M20.543 18H22.043C23.1475 18 24.043 18.8954 24.043 20V21.7102C24.043 23.4092 26.0274 24.3344 27.3288 23.2421L34.0338 17.6143C35.0182 16.788 34.979 15.2612 33.9535 14.4865L27.2485 9.42148C25.9309 8.42616 24.043 9.36605 24.043 11.0173V12.5C24.043 13.6046 23.1475 14.5 22.043 14.5H20.543" stroke="white" stroke-width="2"/>
</svg>
