<svg width="59" height="32" viewBox="0 0 59 32" fill="none" xmlns="http://www.w3.org/2000/svg">
<rect y="0.5" width="59" height="31" rx="10" fill="#012060"/>
<path d="M15.12 21.5V10.3H19.84C22.064 10.3 24 10.892 24 14.124C24 17.356 22.064 17.932 19.856 17.932H17.568V21.5H15.12ZM20.32 12.46H17.568V15.772H20.32C21.072 15.772 21.408 15.484 21.408 14.572V13.66C21.408 12.748 21.072 12.46 20.32 12.46ZM29.8444 10.3C32.1804 10.3 35.3804 10.86 35.3804 15.9C35.3804 20.94 32.1804 21.5 29.8444 21.5H25.6044V10.3H29.8444ZM30.2124 12.46H28.0524V19.34H30.2124C31.5724 19.34 32.7084 18.764 32.7084 16.668V15.132C32.7084 13.036 31.5724 12.46 30.2124 12.46ZM44.0956 17.26H39.5836V21.5H37.1356V10.3H44.5916V12.46H39.5836V15.1H44.0956V17.26Z" fill="white"/>
</svg>
