<svg width="70" height="82" viewBox="0 0 70 82" fill="none" xmlns="http://www.w3.org/2000/svg">
<path d="M11.81 50.4999C9.64801 47.9533 8.01703 44.8729 7.04063 41.4919C6.06423 38.111 5.768 34.5183 6.1744 30.9858C6.58079 27.4533 7.67915 24.0738 9.38626 21.1032C11.0934 18.1326 13.3645 15.6489 16.0276 13.8401C18.6907 12.0312 21.6759 10.9448 24.7571 10.6631C27.8383 10.3814 30.9347 10.9117 33.8118 12.214C36.6889 13.5162 39.2713 15.5563 41.3632 18.1795C43.4551 20.8027 45.0018 23.9404 45.8861 27.3548H51.095C53.9047 27.3545 56.6399 28.3959 58.8967 30.3254C61.1535 32.2548 62.8122 34.9699 63.6277 38.0696C64.4433 41.1692 64.3724 44.4891 63.4256 47.5388C62.4789 50.5885 60.7064 53.2063 58.37 55.0054" stroke="#EEEDED" stroke-width="3" stroke-linecap="round" stroke-linejoin="round"/>
<path d="M35.0898 40.7742V70.9677" stroke="#EEEDED" stroke-width="3" stroke-linecap="round" stroke-linejoin="round"/>
<path d="M46.7297 54.1935L35.0897 40.7742L23.4497 54.1935" stroke="#EEEDED" stroke-width="3" stroke-linecap="round" stroke-linejoin="round"/>
</svg>
